<?xml version="1.0" standalone="no"?>
<!DOCTYPE svg PUBLIC "-//W3C//DTD SVG 20010904//EN"
    "http://www.w3.org/TR/2001/REC-SVG-20010904/DTD/svg10.dtd">
<svg version="1.0" xmlns="http://www.w3.org/2000/svg"
     width="40.000000pt" height="40.000000pt" viewBox="0 0 40.000000 40.000000"
     preserveAspectRatio="xMidYMid meet">
    <g transform="translate(0.000000,40.000000) scale(0.100000,-0.100000)"
       fill="#aaaaaa" stroke="none">
        <path d="M20 201 c0 -101 2 -121 15 -121 12 0 15 17 15 88 l1 87 18 -50 c9
-27 23 -50 31 -50 8 0 22 23 31 50 l18 50 1 -87 c0 -71 3 -88 15 -88 13 0 15
20 15 121 0 119 0 120 -22 117 -18 -2 -26 -14 -38 -55 -8 -29 -17 -53 -20 -53
-3 0 -12 24 -20 53 -12 41 -20 53 -38 55 -22 3 -22 2 -22 -117z"/>
        <path d="M220 220 c0 -118 12 -140 80 -140 68 0 80 22 80 140 0 82 -3 100 -15
100 -12 0 -15 -16 -15 -86 0 -101 -9 -124 -50 -124 -41 0 -50 23 -50 124 0 70
-3 86 -15 86 -12 0 -15 -18 -15 -100z"/>
    </g>
</svg>
